HIERARCHY
ROOT Hips
{
	OFFSET 0.00000 0.00000 0.00000
	CHANNELS 6 Xposition Yposition Zposition Yrotation Zrotation Xrotation 
	JOINT Lumbar
	{
		OFFSET 0 0 0
		CHANNELS 3 Zrotation Xrotation Yrotation
		JOINT Neck
		{
			OFFSET 0.00 0.2701 0.00
			CHANNELS 3 Zrotation Xrotation Yrotation
			End Site
			{
				OFFSET 0.00 0.1379 0.00
			}
		}
		JOINT RightShoulder
		{
			OFFSET 0.0119 0.2289 0.1181
			CHANNELS 3 Zrotation Xrotation Yrotation
			JOINT RightElbow
			{
				OFFSET 0.00 -0.1475 0.00
				CHANNELS 2 Zrotation Yrotation
				JOINT RightWrist
				{
					OFFSET 0.00 -0.1605 0.00
					CHANNELS 2 Zrotation Xrotation
					End Site
					{
						OFFSET 0.0040 -0.1068 0.0006
					}
				}
			}
		}
		JOINT LeftShoulder
		{
			OFFSET 0.0119 0.2289 -0.1181
			CHANNELS 3 Zrotation Xrotation Yrotation
			JOINT LeftElbow
			{
				OFFSET 0.00 -0.1475 0.00
				CHANNELS 2 Zrotation Yrotation
				JOINT LeftWrist
				{
					OFFSET 0.00 -0.1605 0.00
					CHANNELS 2 Zrotation Xrotation
					End Site
					{
						OFFSET 0.0040 -0.1068 -0.0006
					}
				}
			}
		}
	}
	JOINT RightHip
	{
		OFFSET 0.0316 -0.0424 0.0458
		CHANNELS 3 Zrotation Xrotation Yrotation
		JOINT RightKnee
		{
			OFFSET 0.00 -0.2438 0.00
			CHANNELS 1 Zrotation
			JOINT RightAnkle
			{
				OFFSET 0.00 -0.2449 0.00
				CHANNELS 3 Zrotation Xrotation Yrotation
				End Site
				{
					OFFSET 0.1237 -0.0542 0.0051
				}
			}
		}
	}
	JOINT LeftHip
	{
		OFFSET 0.0316 -0.0424 -0.0458
		CHANNELS 3 Zrotation Xrotation Yrotation
		JOINT LeftKnee
		{
			OFFSET 0.00 -0.2438 0.00
			CHANNELS 1 Zrotation
			JOINT LeftAnkle
			{
				OFFSET 0.00 -0.2449 0.00
				CHANNELS 3 Zrotation Xrotation Yrotation
				End Site
				{
					OFFSET 0.1237 -0.0542 -0.0051
				}
			}
		}
	}
}
MOTION
Frames: 34
Frame Time: 0.02
0.29088 0.35756 -0.00567 182.94173 0 -7.8037 -4.31803 9.21701 -7.89348 -51.01998 5.02823 8.0856 53.43352 -33.76794 29.25285 94.20166 48.8325 24.16794 -8.71853 93.11824 25.16158 -53.2343 115.42338 -69.41862 20.86998 5.12221 66.15845 -3.10974 -14.40756 -85.34274 2.34211 -4.4584 -14.12167 71.39363 16.78323 4.57836 -89.43948 8.80918 5.98488 8.15936
0.29088 0.35766 -0.00467 182.85517 0 -7.97656 -4.23764 9.4483 -8.02713 -51.49025 5.44422 8.70422 53.61538 -33.97216 29.31199 94.00789 48.11516 23.49826 -9.00053 93.4237 24.91507 -53.16271 114.84026 -68.3729 19.37735 5.67751 66.0894 -3.08324 -14.48955 -85.23268 2.289 -4.45737 -13.97622 71.44286 16.71723 4.38847 -89.51195 8.85327 6.07742 8.35013
0.2909 0.3577 -0.0038 182.78709 0 -8.17014 -4.16058 9.65551 -8.19164 -51.81304 5.98354 9.41418 53.7568 -34.27554 29.29515 93.94333 47.44471 22.62968 -9.34691 93.47801 24.56181 -53.0591 114.17228 -66.35841 17.75535 6.46808 66.02077 -3.05791 -14.61181 -85.13147 2.24662 -4.45321 -13.84191 71.52124 16.63769 4.14164 -89.59978 8.88565 6.16472 8.53855
0.29091 0.35777 -0.00289 182.70978 0 -8.35136 -4.08526 9.86643 -8.34768 -52.18899 6.46564 10.07857 53.91163 -34.53183 29.32416 93.81977 46.78022 21.81881 -9.67323 93.60594 24.25435 -52.97263 113.54677 -64.78317 16.28874 7.13205 65.95522 -3.02943 -14.71233 -85.02851 2.19914 -4.4503 -13.70578 71.58678 16.5674 3.92373 -89.6805 8.92282 6.25313 8.72481
0.2909 0.35786 -0.00189 182.63418 0 -8.54549 -3.996 10.10882 -8.48224 -52.61683 6.95485 10.76297 54.08466 -34.79766 29.31041 93.70362 46.10815 21.07038 -9.96943 93.88579 23.94769 -52.87844 112.89452 -63.32691 14.334 7.87789 65.87571 -3.01183 -14.82721 -84.91535 2.15192 -4.44838 -13.5541 71.65032 16.48307 3.69163 -89.76228 8.9629 6.34809 8.92721
0.29094 0.35787 -0.00112 182.56023 0 -8.71711 -3.93638 10.27965 -8.66776 -52.90271 7.45605 11.42408 54.20932 -35.06496 29.36512 93.60008 45.42453 20.17569 -10.33932 93.79916 23.62112 -52.79145 112.28258 -61.36449 13.38011 8.50968 65.82512 -2.97259 -14.92204 -84.82574 2.10724 -4.44366 -13.43774 71.72454 16.42501 3.47664 -89.84493 8.99393 6.42765 9.0944
0.29113 0.35765 -0.00094 182.4849 0 -8.826 -3.96103 10.25791 -8.99044 -52.84968 7.98079 12.0256 54.2336 -35.33468 29.6345 93.50269 44.66234 18.90152 -10.90898 92.73455 23.22767 -52.73256 111.79222 -58.03768 15.42611 8.76806 65.85804 -2.86502 -14.94896 -84.79963 2.0638 -4.43066 -13.42141 71.82745 16.44424 3.31577 -89.93095 9.00221 6.46658 9.16583
0.29135 0.35735 -0.00098 182.41126 0 -8.91069 -4.01479 10.16506 -9.36208 -52.65667 8.50945 12.59545 54.20663 -35.5985 29.97293 93.41197 43.87782 17.5024 -11.54704 91.31768 22.82536 -52.68126 111.34834 -54.24861 18.4638 8.90445 65.91937 -2.73722 -14.95486 -84.79695 2.02326 -4.41517 -13.43963 71.93907 16.49013 3.17544 -90.01643 9.00176 6.48991 9.20139
0.29155 0.3571 -0.00093 182.33783 0 -9.0035 -4.05329 10.10511 -9.70883 -52.51801 9.02283 13.16195 54.189 -35.85016 30.27522 93.31567 43.11062 16.18635 -12.14513 90.08194 22.45383 -52.62611 110.8918 -50.79268 20.92229 9.09665 65.96531 -2.62385 -14.97206 -84.78314 1.98345 -4.40161 -13.43891 72.04261 16.52321 3.03048 -90.09903 9.00563 6.51985 9.25247
0.29178 0.3568 -0.00088 182.26026 0 -9.10916 -4.1008 10.04163 -10.06902 -52.41396 9.59759 13.80645 54.23016 -36.16738 30.59727 93.2355 42.31629 14.74937 -12.78406 88.74661 21.96802 -52.57262 110.39767 -46.80805 23.90026 9.29303 66.02184 -2.48787 -14.98303 -84.77142 1.93512 -4.38452 -13.45208 72.16437 16.55931 2.8639 -90.19531 9.00774 6.55171 9.30688
0.29196 0.35658 -0.00086 182.19227 0 -9.18209 -4.13601 9.96922 -10.41094 -52.20553 10.04373 14.27991 54.13551 -36.34601 30.89274 93.12068 41.57276 13.53955 -13.35209 87.5405 21.71639 -52.51661 109.9924 -43.79913 26.05481 9.45175 66.06293 -2.39485 -15.00177 -84.76111 1.90541 -4.3743 -13.44455 72.25007 16.59491 2.7477 -90.26286 9.01146 6.57587 9.34578
0.29198 0.35661 -0.00087 182.14335 0 -9.16991 -4.13404 9.88724 -10.70342 -51.75083 10.13274 14.2858 53.69201 -36.1348 31.12243 92.91504 40.96394 12.9747 -13.71745 86.76081 22.14288 -52.46239 109.8361 -43.84366 25.51008 9.50815 66.0556 -2.41951 -15.0441 -84.7462 1.92349 -4.38301 -13.37027 72.2323 16.62897 2.76834 -90.25008 9.02276 6.58295 9.35095
0.29194 0.35671 -0.00091 182.1052 0 -9.12559 -4.11822 9.79949 -10.97352 -51.19406 10.09097 14.11988 53.1104 -35.78368 31.31913 92.67208 40.40777 12.64688 -14.00698 86.12747 22.80126 -52.40335 109.76554 -44.84999 24.13248 9.53444 66.03161 -2.48907 -15.09518 -84.73236 1.96063 -4.39883 -13.27429 72.17814 16.66055 2.8388 -90.20853 9.03582 6.58275 9.34164
0.29193 0.35678 -0.00093 182.0666 0 -9.09635 -4.10585 9.71575 -11.24487 -50.68124 10.11005 14.03527 52.58437 -35.50394 31.51477 92.44174 39.83507 12.21965 -14.32434 85.4397 23.33374 -52.33996 109.64601 -45.25224 23.26354 9.59244 66.01438 -2.54212 -15.14419 -84.71978 1.99101 -4.41188 -13.18877 72.14164 16.68909 2.88486 -90.18086 9.04752 6.58572 9.3388
0.29192 0.35686 -0.00097 182.00938 0 -9.06444 -4.10544 9.62278 -11.55452 -50.17861 10.12647 13.9396 52.0904 -35.19824 31.77907 92.2315 39.23342 11.75097 -14.67188 84.6896 23.94903 -52.30523 109.56916 -46.32064 21.90041 9.57228 66.00123 -2.57859 -15.18505 -84.70065 2.01382 -4.42302 -13.10133 72.10068 16.73592 2.93878 -90.14988 9.06137 6.58886 9.33533
0.29188 0.35693 -0.00098 181.99337 0 -9.0306 -4.07779 9.54968 -11.77978 -49.62621 10.11343 13.82202 51.49309 -34.90452 31.89347 91.9686 38.70108 11.42892 -14.93794 84.10726 24.45134 -52.20855 109.42459 -46.26382 21.32979 9.70675 65.97565 -2.6598 -15.24446 -84.6951 2.05646 -4.43971 -13.01301 72.06028 16.74403 2.98822 -90.11881 9.07114 6.58993 9.32998
0.29178 0.35694 -0.00086 182.08933 0 -9.00086 -3.96644 9.52379 -11.76495 -49.01496 10.08441 13.72488 50.68248 -34.75527 31.5862 91.5853 38.37997 11.43502 -14.99428 83.96627 24.54839 -51.95225 109.06213 -42.6305 23.37532 10.29705 65.91654 -2.85987 -15.3596 -84.72671 2.15268 -4.47141 -12.92117 72.02992 16.64303 3.01063 -90.09578 9.0705 6.58888 9.32512
0.29166 0.35694 -0.00071 182.22613 0 -8.97006 -3.8302 9.52004 -11.66763 -48.34801 10.02427 13.60454 49.76591 -34.60903 31.13197 91.14776 38.12116 11.58481 -14.97137 83.98778 24.53065 -51.63303 108.63186 -37.8781 26.20334 11.03994 65.84601 -3.10223 -15.49185 -84.77183 2.26751 -4.50822 -12.83025 72.00134 16.50365 3.02727 -90.07341 9.06551 6.58574 9.3186
0.29155 0.35695 -0.00059 182.34384 0 -8.93891 -3.713 9.51262 -11.61656 -47.67194 9.95609 13.46939 48.87285 -34.41016 30.75488 90.72399 37.81196 11.68159 -14.98666 83.92821 24.58943 -51.3343 108.23682 -33.79348 28.51748 11.70025 65.78269 -3.32139 -15.6122 -84.81067 2.37155 -4.54177 -12.74289 71.97221 16.38342 3.04796 -90.04994 9.06169 6.58245 9.31165
0.29141 0.35696 -0.00043 182.46462 0 -8.91038 -3.56277 9.47844 -11.52945 -47.13694 9.97582 13.4351 48.07835 -34.42071 30.33239 90.34292 37.59616 11.73407 -14.99059 83.90608 24.55331 -51.0646 107.81933 -29.06838 31.45921 12.4179 65.71014 -3.55943 -15.7508 -84.85017 2.48617 -4.5795 -12.63782 71.94094 16.25546 3.06401 -90.02888 9.06129 6.58351 9.3093
0.29132 0.35695 -0.00033 182.588 0 -8.87628 -3.47552 9.50471 -11.49596 -46.29703 9.80823 13.18767 47.05597 -34.00026 29.97069 89.86296 37.20198 11.91062 -14.99976 83.84016 24.68481 -50.72583 107.43993 -25.40105 33.3056 13.04954 65.65449 -3.76696 -15.85467 -84.89145 2.58282 -4.60967 -12.57033 71.91478 16.13509 3.08814 -90.00329 9.05275 6.57514 9.29702
0.29138 0.3569 -0.00039 182.71319 0 -8.82974 -3.56903 9.69817 -11.64925 -44.6227 9.11855 12.35668 45.42429 -32.36628 29.80633 89.10201 36.28244 12.38731 -15.04817 83.63503 25.30234 -50.15723 107.10631 -24.90806 31.81071 13.43373 65.64664 -3.88533 -15.86426 -84.93467 2.62611 -4.61755 -12.60488 71.90457 16.04019 3.13187 -89.96565 9.02238 6.54112 9.2593
0.29148 0.35684 -0.00051 182.83865 0 -8.77737 -3.72668 9.95076 -11.85614 -42.64537 8.24415 11.31341 43.56879 -30.30342 29.70925 88.24745 35.18444 12.98387 -15.10404 83.3756 26.09096 -49.53097 106.82542 -25.51694 29.21684 13.72084 65.65651 -3.97031 -15.83731 -84.9791 2.6504 -4.61762 -12.67757 71.89924 15.95517 3.18433 -89.92349 8.98404 6.49774 9.21148
0.29157 0.35678 -0.0006 182.96092 0 -8.72597 -3.85459 10.1725 -12.02628 -40.81096 7.46346 10.3681 41.82036 -28.4524 29.58618 87.44997 34.17913 13.52949 -15.15328 83.12616 26.80497 -48.9675 106.57189 -25.63026 27.20862 14.03499 65.65948 -4.06675 -15.82307 -85.02281 2.68279 -4.62134 -12.73394 71.89033 15.86884 3.23539 -89.88309 8.94962 6.45875 9.1673
0.29166 0.35672 -0.00068 183.09761 0 -8.68127 -3.98423 10.4115 -12.24529 -38.95142 6.64143 9.41382 40.04542 -26.5297 29.43996 86.58961 33.1263 14.06635 -15.21314 82.94417 27.50725 -48.24946 106.10626 -25.68443 24.85127 14.4278 65.65738 -4.18031 -15.82535 -85.06791 2.71822 -4.6249 -12.7862 71.88707 15.76774 3.27588 -89.84381 8.91379 6.4191 9.12694
0.29174 0.35667 -0.00082 183.20374 0 -8.62167 -4.12565 10.6287 -12.37703 -37.07437 5.86073 8.43033 38.27407 -24.65467 29.35815 85.83816 32.13024 14.64678 -15.25399 82.60705 28.26929 -47.83786 106.08715 -26.13642 22.96503 14.63014 65.66997 -4.24979 -15.78501 -85.11001 2.7424 -4.62678 -12.85586 71.87336 15.70027 3.33996 -89.80127 8.87905 6.37866 9.07639
0.29178 0.35669 -0.0011 183.22548 0 -8.51879 -4.28553 10.76745 -12.24849 -35.21202 5.2509 7.39958 36.56737 -23.01433 29.45349 85.41549 31.32629 15.32736 -15.2383 81.85105 29.21125 -48.3094 107.35857 -27.4328 22.5102 14.34448 65.72075 -4.20462 -15.62964 -85.14514 2.74136 -4.62664 -12.96617 71.82803 15.72346 3.47208 -89.74961 8.84939 6.33805 8.99891
0.2918 0.35673 -0.00144 183.21608 0 -8.40175 -4.45484 10.88268 -12.03167 -33.34503 4.68695 6.35025 34.8728 -21.43716 29.60945 85.10493 30.58723 16.04494 -15.20399 80.9412 30.19645 -49.08713 109.06163 -29.09264 22.58413 13.86816 65.78547 -4.1161 -15.43364 -85.17683 2.72927 -4.62492 -13.09231 71.77227 15.78045 3.62684 -89.69505 8.82113 6.29702 8.91178
0.29183 0.35676 -0.00176 183.22088 0 -8.29358 -4.61888 11.01118 -11.85998 -31.48756 4.09471 5.32183 33.17293 -19.83224 29.72766 84.74004 29.82312 16.73914 -15.18013 80.10275 31.12636 -49.71034 110.52514 -30.58342 22.50953 13.46761 65.84247 -4.04803 -15.26036 -85.20897 2.72144 -4.62348 -13.20993 71.72234 15.82186 3.76779 -89.6426 8.7921 6.25633 8.82991
0.29187 0.35678 -0.00208 183.22615 0 -8.1751 -4.78938 11.13137 -11.66971 -29.58759 3.5278 4.23374 31.46327 -18.20814 29.88987 84.38637 29.03257 17.46634 -15.14826 79.25409 32.21647 -50.3974 112.1863 -32.13456 22.03128 13.10511 65.90561 -3.97609 -15.0682 -85.24588 2.71644 -4.6237 -13.33449 71.6681 15.86396 3.92339 -89.58662 8.76316 6.21463 8.74398
0.29189 0.35682 -0.0024 183.22226 0 -8.07457 -4.94774 11.26189 -11.49555 -27.77973 2.92096 3.26779 29.78105 -16.6448 29.97563 84.03688 28.3167 18.13074 -15.12834 78.39358 32.97615 -51.02366 113.52172 -33.62424 22.50642 12.62506 65.95943 -3.90184 -14.90574 -85.272 2.70285 -4.6201 -13.44783 71.62016 15.91324 4.05437 -89.53739 8.73469 6.17513 8.66434
0.29186 0.35692 -0.00271 183.20717 0 -8.02938 -5.07076 11.43186 -11.3959 -26.22291 2.19806 2.64931 28.16245 -15.23501 29.82192 83.67548 27.77582 18.62312 -15.14803 77.51504 32.85356 -51.41852 113.98624 -34.9245 25.71887 11.81782 65.98048 -3.83624 -14.83951 -85.26922 2.67108 -4.60713 -13.52629 71.59313 15.96778 4.10633 -89.5074 8.70536 6.14127 8.60463
0.29182 0.35703 -0.00301 183.18278 0 -8.00239 -5.18079 11.61184 -11.31408 -24.76145 1.43369 2.15448 26.57391 -13.88686 29.59188 83.31486 27.31151 19.04864 -15.17999 76.63479 32.38886 -51.73973 114.08173 -36.13598 29.83181 10.90835 65.99213 -3.76929 -14.80407 -85.25567 2.63068 -4.59031 -13.59261 71.57255 16.02937 4.13363 -89.48435 8.67685 6.10981 8.55168
0.2918 0.35713 -0.00332 183.15828 0 -7.96557 -5.2962 11.78351 -11.21776 -23.2606 0.68521 1.6003 24.97875 -12.51096 29.40467 82.95086 26.82328 19.49707 -15.20494 75.77013 32.05276 -52.08759 114.25921 -37.33222 33.38762 10.07866 66.01048 -3.7 -14.75178 -85.24703 2.59236 -4.57472 -13.66446 71.54841 16.092 4.17585 -89.45826 8.64916 6.07762 8.49546
